<?xml version="1.0" standalone="no"?>
<!DOCTYPE svg PUBLIC "-//W3C//DTD SVG 1.1//EN" "http://www.w3.org/Graphics/SVG/1.1/DTD/svg11.dtd">
<svg xmlns="http://www.w3.org/2000/svg">
<metadata>Copyright (C) 2019 by original authors @ fontello.com</metadata>
<defs>
<font id="note" horiz-adv-x="1000" >
<font-face font-family="note" font-weight="400" font-stretch="normal" units-per-em="1000" ascent="850" descent="-150" />
<missing-glyph horiz-adv-x="1000" />
<glyph glyph-name="eye-1" unicode="&#xe800;" d="M0 350q6 49 64 110 79 80 176 129 129 60 260 60 137-2 260-60 103-53 176-129 64-73 64-110-6-49-64-109-79-80-176-129-129-61-260-61-137 2-260 61-103 53-176 129-64 72-64 109z m264 0q0-94 69-159t167-65 167 65 69 159-69 159-167 66-167-66-69-159z m86 1q0 60 44 102t106 42 106-42 44-102-44-102-106-43-106 43-44 102z" horiz-adv-x="1000" />

<glyph glyph-name="a" unicode="&#xe801;" d="M735-150l-72 237h-363l-72-237h-228l352 1000h258l353-1000z m-123 414q-100 322-112 365t-18 66q-23-87-129-431z" horiz-adv-x="963" />

<glyph glyph-name="internal-link-alt" unicode="&#xe802;" d="M1073 830a69 69 0 0 1-98 0l-447-447c-47 46-84 81-85 82l0 0-1 1c-25 9-45 9-58 0-11-7-17-22-17-44v-247c0-1 0-21 13-34 8-8 19-13 33-13h265l0 0c2 1 33 11 39 35 4 15-2 31-18 49-15 16-42 44-73 75l447 445a69 69 0 0 1 0 98z m-225-980h-720a129 129 0 0 0-128 128v730a129 129 0 0 0 128 128h522a69 69 0 0 0 0-138h-512v-710h700v268a69 69 0 0 0 138 0v-278a129 129 0 0 0-128-128z" horiz-adv-x="1093" />

<glyph glyph-name="function" unicode="&#xe803;" d="M62-14v452h-62v134h62v23c0 71 18 149 61 196 37 43 89 59 132 59 33 0 59-5 80-12l-6-140a134 134 0 0 1-48 8c-49 0-70-46-70-104v-30h97v-134h-94v-452z m534 830c-56-110-99-271-99-485 0-211 44-370 99-481h-104c-53 92-112 251-112 482 1 232 59 390 112 484z m208-244l47-96c14-30 26-60 39-87h2c13 31 25 61 37 89l43 94h162l-158-279 160-307h-168l-49 107c-14 29-26 59-38 90h-3c-12-32-25-61-36-90l-46-107h-163l163 299-159 287z m370-722c54 110 99 272 99 483s-44 371-99 483h104c52-92 112-249 112-483-1-233-60-390-112-483z" horiz-adv-x="1390" />

<glyph glyph-name="description" unicode="&#xe804;" d="M268 540h582a51 51 0 1 1 0 101h-582a51 51 0 1 1 0-101z m0-232h389a51 51 0 1 1 0 101h-389a51 51 0 1 1 0-101z m-228-288h127v-130a40 40 0 0 1 22-36 38 38 0 0 1 18-4 42 42 0 0 1 24 8l212 161h640a39 39 0 0 1 39 40v751a39 39 0 0 1-39 40h-1043a39 39 0 0 1-40-40v-750a40 40 0 0 1 40-40z m39 751h963v-672h-612a42 42 0 0 1-24-7l-160-122v90a39 39 0 0 1-39 39h-128z" horiz-adv-x="1122" />

<glyph glyph-name="global-option" unicode="&#xe805;" d="M997 406c-2 14-18 24-32 24-46 0-87 27-104 69-17 42-6 92 28 123 11 10 12 27 3 38-23 30-50 57-79 80-11 9-28 8-38-3-30-33-83-45-125-28-43 18-70 62-67 109 1 14-10 27-25 29-37 4-75 4-112 0-15-2-25-14-25-29 2-46-26-89-68-106-41-17-94-5-124 28-10 11-27 12-38 3-30-23-57-50-81-80-9-11-8-28 3-38 35-31 46-82 28-125-17-41-60-67-109-67-16 0-27-10-29-25-4-37-4-76 0-113 2-15 19-25 33-25 44 1 85-26 103-69 17-42 6-92-28-123-11-10-12-26-3-38 23-29 50-57 79-80 11-9 28-8 38 3 30 33 83 45 125 28 43-18 70-62 67-109-1-14 10-27 25-29 19-2 38-3 57-3 19 0 37 1 55 3 15 2 26 14 25 29-2 46 26 89 68 106 42 17 95 5 124-28 10-11 27-12 38-3 30 23 57 50 81 80 9 11 8 28-3 38-35 32-46 82-28 125 17 40 58 68 102 68l6-1c15-1 28 10 30 25 4 37 4 76 0 114z m-496-224c-92 0-167 75-167 167 0 92 75 167 167 167 92 0 167-75 167-167 0-92-75-167-167-167z" horiz-adv-x="1000" />

<glyph glyph-name="validation" unicode="&#xe806;" d="M378-150c-31 0-60 14-79 39l-255 338c-34 43-25 106 19 139 44 33 106 25 139-19l168-222 423 678c29 47 90 61 137 32 46-29 61-90 32-137l-499-801c-18-28-47-45-80-47-2 0-3 0-5 0z" horiz-adv-x="1000" />

<glyph glyph-name="schema" unicode="&#xe807;" d="M659 0h188v-100c0-28 21-50 47-50h283c26 0 47 22 47 50v300c0 28-21 50-47 50h-283c-26 0-47-22-47-50v-100h-188v500h188v-100c0-28 21-50 47-50h283c26 0 47 22 47 50v300c0 28-21 50-47 50h-283c-26 0-47-22-47-50v-100h-235c-26 0-47-22-47-50v-550h-188v100c0 28-21 50-47 50h-283c-26 0-47-22-47-50v-300c0-28 21-50 47-50h283c26 0 47 22 47 50v100h188" horiz-adv-x="1224" />

<glyph glyph-name="state" unicode="&#xe808;" d="M313 662h-129a30 30 0 0 1 0-60h129a30 30 0 0 1 0 60z m2-135h-131a30 30 0 0 1 0-60h131a30 30 0 0 1 0 60z m-2-139h-129a30 30 0 0 1 0-60h129a30 30 0 1 1 0 60z m120 214h134a30 30 0 0 1 0 60h-134c-17 0-32-13-32-30s15-30 32-30z m2-135h132a30 30 0 0 1 0 60h-132c-17 0-32-14-32-30s15-30 32-30z m425-92a246 246 0 0 1-143 72v283a120 120 0 0 1-120 120h-477a120 120 0 0 1-120-120v-569a120 120 0 0 1 120-120h375a245 245 0 0 1 189-87c136 0 247 111 247 247a246 246 0 0 1-71 174z m-800-214v569a61 61 0 0 0 60 60h477a61 61 0 0 0 61-60v-282a248 248 0 0 1-200-348h-338a61 61 0 0 0-60 61z m624-148a188 188 0 0 0 0 377l3 0h0a188 188 0 0 0-3-377z m169-141l-66 108a45 45 0 0 0 16 61h0a45 45 0 0 0 61-16l66-108a45 45 0 0 0-16-61h0a45 45 0 0 0-61 16z" horiz-adv-x="936" />

<glyph glyph-name="m" unicode="&#xe809;" d="M423-150l-240 785h-6q13-240 13-320v-465h-190v1000h289l236-765h4l251 765h289v-1000h-198v473q0 34 1 78t10 232h-6l-258-783z" horiz-adv-x="1069" />

<glyph glyph-name="eye" unicode="&#xe80a;" d="M0 350q6 49 64 110 79 80 176 129 129 60 260 60 137-2 260-60 103-53 176-129 64-73 64-110-6-49-64-109-79-80-176-129-129-61-260-61-137 2-260 61-103 53-176 129-64 72-64 109z m264 0q0-94 69-159t167-65 167 65 69 159-69 159-167 66-167-66-69-159z m86 1q0 60 44 102t106 42 106-42 44-102-44-102-106-43-106 43-44 102z" horiz-adv-x="1000" />

<glyph glyph-name="r" unicode="&#xe80b;" d="M212 234v-384h-212v1000h291q204 0 302-74t98-226q0-88-49-157t-137-107l294-436h-235l-239 384z m0 172h68q101 0 149 34t48 105q0 71-49 101t-152 30h-64z" horiz-adv-x="799" />

<glyph glyph-name="bf-icon-validation-invalid" unicode="&#xe80c;" d="M665 350l309 309c35 35 35 90 0 124l-41 41c-34 35-89 35-124 0l-309-309-309 309c-34 35-90 35-124 0l-41-41c-35-34-35-89 0-124l309-309-309-309c-35-35-35-90 0-124l41-41c34-35 90-35 124 0l309 309 309-309c35-35 90-35 124 0l41 41c35 34 35 90 0 124z m0 0" horiz-adv-x="1000" />

<glyph glyph-name="bf-icon-circle-a" unicode="&#xe80d;" d="M603 547a131 131 0 0 1-42 28 130 130 0 0 1-101 0 130 130 0 0 1-69-70 127 127 0 0 1-10-50v-130h260v130a127 127 0 0 1-10 50 131 131 0 0 1-28 42z m-103 303c-276 0-500-224-500-500s224-500 500-500 500 224 500 500-224 500-500 500z m271-784h-130v130h-260v-130h-129v389a253 253 0 0 0 20 101 264 264 0 0 0 55 83 259 259 0 0 0 83 55 261 261 0 0 0 202 0 261 261 0 0 0 138-138 253 253 0 0 0 21-101z" horiz-adv-x="1000" />

<glyph glyph-name="bf-icon-circle-d" unicode="&#xe80e;" d="M579 576q-44 13-107 13h-90v-458h103q34 0 54 2a167 167 0 0 1 40 9 109 109 0 0 1 36 21q68 58 68 200 0 100-30 149t-74 64z m-79 274c-276 0-500-224-500-500s224-500 500-500 500 224 500 500-224 500-500 500z m311-599a328 328 0 0 0-32-91 281 281 0 0 0-57-72 234 234 0 0 0-59-39 269 269 0 0 0-70-20 527 527 0 0 0-83-6h-178q-38 0-57 11a52 52 0 0 0-24 32q-6 20-6 53v495q0 44 20 64t64 19h178q70 0 119-13a219 219 0 0 0 90-48q106-90 106-274a538 538 0 0 0-11-111z" horiz-adv-x="1000" />

<glyph glyph-name="bf-icon-circle-r" unicode="&#xe80f;" d="M630 457q17 20 17 55a85 85 0 0 1-14 48 84 84 0 0 1-38 32q-24 9-92 9h-123v-180h119q48 0 81 8t50 28z m-143 393c-269 0-487-218-487-487s218-487 487-487 487 218 487 487-218 487-487 487z m299-790a58 58 0 0 0-23-20 71 71 0 0 0-33-7q-23 0-38 10a101 101 0 0 0-26 27q-11 16-30 47l-53 89q-29 49-52 75t-46 35q-23 9-58 9h-47v-211q0-42-18-62t-48-19q-32 0-50 20t-17 61v506q0 43 19 62t62 19h217a659 659 0 0 0 77-3 193 193 0 0 0 57-16 166 166 0 0 0 55-37 163 163 0 0 0 36-56 188 188 0 0 0 12-68q0-74-41-118t-126-62q35-19 68-56a565 565 0 0 0 57-78 581 581 0 0 0 40-75q14-33 14-46a47 47 0 0 0-8-26z" horiz-adv-x="974" />

<glyph glyph-name="bf-icon-circle-p" unicode="&#xe810;" d="M507 595h-92v-206h92q49 0 81 10t50 33q17 23 17 60 0 45-26 73-30 30-122 30z m-7 255c-276 0-500-224-500-500s224-500 500-500 500 224 500 500-224 500-500 500z m230-511q-64-54-189-54h-126v-191q0-41-19-62a63 63 0 0 0-49-21q-31 0-49 21t-19 62v520q0 45 20 64t66 19h176q77 0 119-11a178 178 0 0 0 72-39 172 172 0 0 0 46-65q15-39 15-87 0-103-63-156z" horiz-adv-x="1000" />

<glyph glyph-name="bf-icon-circle-t" unicode="&#xe811;" d="M500 850c-276 0-500-224-500-500s224-500 500-500 500 224 500 500-224 500-500 500z m289-250q-17-15-52-15h-149v-491q0-42-19-62t-49-21q-30 0-50 21t-19 62v491h-149q-35 0-52 15t-17 41q0 26 18 41t51 15h435q35 0 52-15t18-41q0-25-18-41z" horiz-adv-x="1000" />

<glyph glyph-name="bf-icon-circle-w" unicode="&#xe812;" d="M500 850c-276 0-500-224-500-500s224-500 500-500 500 224 500 500-224 500-500 500z m289-730q-10-41-17-60a80 80 0 0 0-23-33q-16-15-45-15-28 0-45 14a75 75 0 0 0-24 32q-6 17-18 59l-97 361-99-361q-11-41-18-58a78 78 0 0 0-24-32q-16-15-44-15-23 0-38 9a65 65 0 0 0-23 23 149 149 0 0 0-15 37q-6 21-10 39l-100 405q-9 36-9 54a53 53 0 0 0 16 40 56 56 0 0 0 41 16q33 0 44-22t21-62l78-351 89 329a529 529 0 0 0 17 57 83 83 0 0 0 26 34q17 15 48 15 30 0 47-16a82 82 0 0 0 24-32q7-18 18-58l89-329 79 351a418 418 0 0 0 10 43 69 69 0 0 0 18 28q13 13 36 13a57 57 0 0 0 41-16 52 52 0 0 0 16-40q0-17-9-54z" horiz-adv-x="1000" />

<glyph glyph-name="bf-icon-arrow-down" unicode="&#xe813;" d="M500 850c-276 0-500-224-500-500s224-500 500-500 500 224 500 500-224 500-500 500z m13-866l-300 300h188v375h224v-375h188z" horiz-adv-x="1000" />

<glyph glyph-name="bf-icon-validation-warning" unicode="&#xe814;" d="M500 850c-276 0-500-224-500-500s224-500 500-500 500 224 500 500-224 500-500 500z m0-819c-39 0-66 30-66 69 0 40 28 69 66 69 40 0 66-29 66-69 0-39-26-69-66-69z m26 264c-10-34-41-35-52 0-12 40-55 191-55 289 0 130 162 130 162 0 0-99-45-254-55-289z" horiz-adv-x="1000" />

<glyph glyph-name="bf-icon-exclamation" unicode="&#xe815;" d="M631 844c-4 4-9 6-15 6h-232c-6 0-11-2-15-6-4-4-6-10-6-15l18-630c0-11 9-20 20-20h198c11 0 20 9 20 20l18 630c0 5-2 11-6 15z m-33-771h-196c-12 0-21-9-21-21v-181c0-12 9-21 21-21h196c12 0 21 9 21 21v181c0 12-9 21-21 21z" horiz-adv-x="1000" />

<glyph glyph-name="bf-icon-circle-l" unicode="&#xe816;" d="M500 850c-276 0-500-224-500-500s224-500 500-500 500 224 500 500-224 500-500 500z m239-821h-435v704h149v-581h286z" horiz-adv-x="1000" />

<glyph glyph-name="bf-icon-circle-i" unicode="&#xe817;" d="M500 850c-276 0-500-224-500-500s224-500 500-500 500 224 500 500-224 500-500 500z m162-238l-85-40v-455l85-40v-85h-320v85l86 40v455l-86 40v84h320z" horiz-adv-x="1000" />

<glyph glyph-name="bf-icon-circle-m" unicode="&#xe818;" d="M500 850c-276 0-500-224-500-500s224-500 500-500 500 224 500 500-224 500-500 500z m313-772h-110v265q0 19 0 43t6 130h-4l-144-438h-109l-134 439h-4q8-134 8-179v-260h-106v559h161l132-427h3l140 427h161z" horiz-adv-x="1000" />

<glyph glyph-name="line" unicode="&#xe819;" d="M1177 764h-1177v86h1177z m-1176-172v-181h1178v181z m-1-742h1177v403h-1177z" horiz-adv-x="1179" />

<glyph glyph-name="bf-icon-circle-n" unicode="&#xe81a;" d="M500 850c-276 0-500-224-500-500s224-500 500-500 500 224 500 500-224 500-500 500z m235-770h-150l-244 423h-3q7-112 7-159v-264h-106v560h150l243-419h2q-5 109-5 154v265h106z" horiz-adv-x="1000" />

<glyph glyph-name="bf-icon-redo-undo" unicode="&#xe81b;" d="M11 599l280 236s33 35 33-3v-171h64v0h225c5-1 13-4 15-22h0v-157h0c0-161 0-582 0-612 0 0 5-20-25-20l-112 0c-21 0-21 17-21 17v636c-242 0-63 0-128 1-31-1-10 0-10 0v-162c0-47-35-11-35-11s-261 201-289 229c-20 20 3 39 3 39z m1312-39c-27-28-289-229-289-229s-35-36-35 11v162s21-1-10 0c-65-1 115-1-128-1v-636s1-17-21-17l-111 0c-30 0-25 20-25 20 0 30 0 451 0 612h0v157h0c1 18 9 21 15 22h224v0h65v171c0 38 33 3 33 3l280-236s22-19 2-39z" horiz-adv-x="1331" />

<glyph glyph-name="bf-icon-validation-clear" unicode="&#xe81c;" d="M696 850h214l-340-1000h-231l-339 1000h214l188-595q16-53 33-123t21-97q7 63 51 220z m530-636l-137-137 137-138a52 52 0 1 0-73-74l-138 138-137-138a52 52 0 1 0-74 74l137 138-137 137a52 52 0 0 0 74 74l137-137 137 137a52 52 0 0 0 74-74z" horiz-adv-x="1242" />

<glyph glyph-name="bf-icon-validation-new" unicode="&#xe81d;" d="M696 850h215l-341-1000h-231l-339 1000h214l188-595q16-53 33-123t21-97q7 63 51 220z" horiz-adv-x="910" />

<glyph glyph-name="bf-icon-circle-c" unicode="&#xe81e;" d="M500 850c-276 0-500-224-500-500s224-500 500-500 500 224 500 500-224 500-500 500z m24-745q76 0 183 38v-128q-88-37-197-37-157 0-240 95t-83 273q0 112 41 196t117 130q76 44 179 44 105 0 210-50l-49-124a815 815 0 0 1-81 33 242 242 0 0 1-80 15q-86 0-133-65t-47-180q0-240 180-240z" horiz-adv-x="1000" />

<glyph glyph-name="bf-icon-circle-v" unicode="&#xe81f;" d="M500 850c-276 0-500-224-500-500s224-500 500-500 500 224 500 500-224 500-500 500z m81-887h-161l-236 695h149l131-414q11-36 22-85t15-68q5 44 35 153l132 414h149z" horiz-adv-x="1000" />
</font>
</defs>
</svg>
